# xmcd
#
# Track frame offsets:
#	150
#	11010
#	22078
#	35844
#	48144
#	58792
#	72633
#	81426
#	88406
#	103558
#	112850
#	122663
#	140785
#	155365
#	167905
#	181385
#	192733
#	203217
#	214114
#	225317
#	237474
#	248346
#	258379
#	270853
#	281578
#	291304
#	301998
#	309725
#
# Disc length: 4307 seconds
#
# Revision: 0
# Processed by: cddbd v1.4PL0 Copyright (c) Steve Scherf et al.
# Submitted via: audiograbber 1.82.01
#
DISCID=a110d11c
DTITLE=Los Iracundos - Vol.3 Primeros en America - En Roma
DYEAR=1998
DGENRE=Latin
TTITLE0=mi mente en ti
TTITLE1=¿porque estas asi?
TTITLE2=te he de encontrar
TTITLE3=tu y el verano
TTITLE4=moritat
TTITLE5=nuestro juramento
TTITLE6=cara mia
TTITLE7=tren solitario
TTITLE8=y la ciudad duerme
TTITLE9=nena para ti
TTITLE10=no hay nada que decir
TTITLE11=cuando los santos vienen marchando
TTITLE12=tu
TTITLE13=ya no estaras
TTITLE14=angela
TTITLE15=sunny
TTITLE16=el fin
TTITLE17=hi-lili-hi-lo
TTITLE18=se que no volveras
TTITLE19=me quebraste la vida
TTITLE20=soplando en el viento
TTITLE21=angel
TTITLE22=negro es negro
TTITLE23=ave maria
TTITLE24=hay una extraña expresion en tus ojos
TTITLE25=si al regresar
TTITLE26=bop-a-lena
TTITLE27=te debia una canciom
EXTD=
EXTT0=
EXTT1=
EXTT2=
EXTT3=
EXTT4=
EXTT5=
EXTT6=
EXTT7=
EXTT8=
EXTT9=
EXTT10=
EXTT11=
EXTT12=
EXTT13=
EXTT14=
EXTT15=
EXTT16=
EXTT17=
EXTT18=
EXTT19=
EXTT20=
EXTT21=
EXTT22=
EXTT23=
EXTT24=
EXTT25=
EXTT26=
EXTT27=
PLAYORDER=
